# xmcd
#
# Track frame offsets: 
#        150
#        13648
#        26068
#        41647
#        56726
#        69741
#        83285
#        95107
#        111543
#        128655
#        147432
#
# Disc length: 2196 seconds
#
# Revision: 0
# Processed by: cddbd v1.5.2PL0 Copyright (c) Steve Scherf et al.
# Submitted via: ExactAudioCopy v0.95a4
#
DISCID=9a08920b
DTITLE=Whiteboy James and The Blues Express - Limited Edition
DYEAR=2011
DGENRE=Blues
TTITLE0=Big Butted Women
TTITLE1=Excuse Me For Scribblin'
TTITLE2=Stay Out Late At Night
TTITLE3=Mean Mistreatin' Woman
TTITLE4=The Big Man
TTITLE5=Gold Brick Bar
TTITLE6=Night Train Wine
TTITLE7=Slow Down And Let Me Love You
TTITLE8=I'm Ready
TTITLE9=Trouble
TTITLE10=Big Blue Train
EXTD=
EXTT0=
EXTT1=
EXTT2=
EXTT3=
EXTT4=
EXTT5=
EXTT6=
EXTT7=
EXTT8=
EXTT9=
EXTT10=
PLAYORDER=
